<svg width="100" height="100" viewBox="0 0 100 100" fill="none" xmlns="http://www.w3.org/2000/svg">
  <circle cx="50" cy="50" r="45" fill="#4F46E5" />
  <path d="M32 31H43.2C48.2 31 51.8 32.2667 54 34.8C56.2 37.3333 57.3 40.8 57.3 45.2C57.3 49.6 56.2 53.1333 54 55.8C51.8 58.4667 48.2 59.8 43.2 59.8H32V31ZM42.5 54.1C45.1 54.1 47 53.3333 48.2 51.8C49.4 50.2667 50 48.1333 50 45.4C50 42.6667 49.4 40.5667 48.2 39.1C47 37.6333 45.1 36.9 42.5 36.9H39.3V54.1H42.5Z" fill="white"/>
  <path d="M32 62H72V68H32V62Z" fill="white"/>
</svg>